<svg xmlns="http://www.w3.org/2000/svg" width="56.146" height="50" viewBox="0 0 56.146 50"><defs><style>.a{fill:#61dafb;}</style></defs><path class="a" d="M231.846,103.006c0-3.719-4.658-7.244-11.8-9.43,1.648-7.279.916-13.069-2.312-14.923a5.017,5.017,0,0,0-2.564-.641v2.552a2.65,2.65,0,0,1,1.3.3c1.556.893,2.232,4.292,1.705,8.663-.126,1.076-.332,2.209-.584,3.365a55.464,55.464,0,0,0-7.267-1.247,55.827,55.827,0,0,0-4.761-5.722c3.731-3.468,7.233-5.367,9.613-5.367V78h0c-3.147,0-7.267,2.243-11.433,6.134-4.166-3.868-8.286-6.088-11.433-6.088V80.6c2.369,0,5.882,1.888,9.613,5.333a54.054,54.054,0,0,0-4.726,5.711,53.445,53.445,0,0,0-7.279,1.259c-.263-1.144-.458-2.255-.6-3.319-.538-4.372.126-7.771,1.671-8.675a2.547,2.547,0,0,1,1.316-.3V78.057h0a5.1,5.1,0,0,0-2.586.641c-3.216,1.854-3.937,7.633-2.277,14.889-7.118,2.2-11.753,5.711-11.753,9.419s4.658,7.244,11.8,9.43c-1.648,7.279-.916,13.069,2.312,14.923a5.031,5.031,0,0,0,2.575.641c3.147,0,7.267-2.243,11.433-6.134,4.166,3.868,8.286,6.088,11.433,6.088a5.1,5.1,0,0,0,2.586-.641c3.216-1.854,3.937-7.633,2.277-14.889C227.211,110.239,231.846,106.714,231.846,103.006Zm-14.9-7.633c-.423,1.476-.95,3-1.545,4.52-.469-.916-.961-1.831-1.5-2.747s-1.087-1.808-1.648-2.678C213.878,94.709,215.446,95.006,216.945,95.372ZM211.7,107.561c-.893,1.545-1.808,3.01-2.758,4.372-1.705.149-3.433.229-5.173.229s-3.456-.08-5.15-.217q-1.425-2.043-2.77-4.349-1.3-2.249-2.38-4.555c.71-1.534,1.511-3.067,2.369-4.566.893-1.545,1.808-3.01,2.758-4.372,1.705-.149,3.433-.229,5.173-.229s3.456.08,5.15.217q1.425,2.043,2.77,4.349,1.3,2.249,2.38,4.555C213.352,104.528,212.562,106.061,211.7,107.561Zm3.7-1.488c.618,1.534,1.144,3.067,1.579,4.555-1.5.366-3.079.675-4.715.916.561-.881,1.122-1.785,1.648-2.712S214.931,106.988,215.4,106.073Zm-11.6,12.211a47.185,47.185,0,0,1-3.182-3.662c1.03.046,2.083.08,3.147.08s2.14-.023,3.182-.08A44.674,44.674,0,0,1,203.8,118.284Zm-8.515-6.741c-1.625-.24-3.193-.538-4.692-.9.423-1.476.95-3,1.545-4.52.469.916.961,1.831,1.5,2.747S194.72,110.673,195.281,111.543Zm8.457-23.816a47.177,47.177,0,0,1,3.182,3.662c-1.03-.046-2.083-.08-3.147-.08s-2.14.023-3.181.08A44.669,44.669,0,0,1,203.739,87.728Zm-8.469,6.741c-.561.881-1.122,1.785-1.648,2.712s-1.019,1.831-1.488,2.747c-.618-1.534-1.144-3.067-1.579-4.555C192.054,95.018,193.633,94.709,195.27,94.468ZM184.913,108.8c-4.051-1.728-6.672-3.994-6.672-5.791s2.621-4.074,6.672-5.791c.984-.423,2.06-.8,3.17-1.156a54.964,54.964,0,0,0,2.575,6.97,54.189,54.189,0,0,0-2.541,6.935C186.984,109.609,185.908,109.22,184.913,108.8Zm6.157,16.354c-1.556-.893-2.232-4.292-1.705-8.663.126-1.076.332-2.209.584-3.365a55.46,55.46,0,0,0,7.267,1.247,55.827,55.827,0,0,0,4.761,5.722c-3.731,3.468-7.233,5.367-9.613,5.367A2.731,2.731,0,0,1,191.07,125.15Zm27.146-8.721c.538,4.372-.126,7.771-1.671,8.675a2.547,2.547,0,0,1-1.316.3c-2.369,0-5.882-1.888-9.613-5.333a54.052,54.052,0,0,0,4.726-5.711,53.438,53.438,0,0,0,7.279-1.259A32.039,32.039,0,0,1,218.216,116.43Zm4.406-7.633c-.984.423-2.06.8-3.17,1.156a54.965,54.965,0,0,0-2.575-6.97,54.19,54.19,0,0,0,2.541-6.935c1.133.355,2.209.744,3.216,1.167,4.051,1.728,6.672,3.994,6.672,5.791S226.673,107.08,222.622,108.8Z" transform="translate(-175.7 -78)"/><path class="a" d="M320.8,78.4Z" transform="translate(-304.194 -78.357)"/><circle class="a" cx="4.919" cy="4.919" r="4.919" transform="translate(23.142 20.087)"/><path class="a" d="M520.5,78.1Z" transform="translate(-481.04 -78.089)"/></svg>